<svg width="543.3" height="132.4" viewBox="0 0 5433 1324" fill="none" xmlns="http://www.w3.org/2000/svg">
<mask id="path-1-outside-1_176_1672" maskUnits="userSpaceOnUse" x="0" y="0" width="1128" height="1324" fill="black">
<rect fill="white" width="1128" height="1324"/>
<path fill-rule="evenodd" clip-rule="evenodd" d="M564 1314.28C243.3 1205.72 9 862.102 9 455C9 388.218 15.305 323.144 27.2622 260.536C166.081 104.815 355.145 9 563.5 9C772.492 9 962.075 105.402 1101.01 261.966C1112.79 324.135 1119 388.726 1119 455C1119 862.102 884.7 1205.72 564 1314.28Z"/>
</mask>
<path fill-rule="evenodd" clip-rule="evenodd" d="M564 1314.28C243.3 1205.72 9 862.102 9 455C9 388.218 15.305 323.144 27.2622 260.536C166.081 104.815 355.145 9 563.5 9C772.492 9 962.075 105.402 1101.01 261.966C1112.79 324.135 1119 388.726 1119 455C1119 862.102 884.7 1205.72 564 1314.28Z" fill="url(#paint0_linear_176_1672)"/>
<path d="M564 1314.28L561.114 1322.8L564 1323.78L566.886 1322.8L564 1314.28ZM27.2622 260.536L20.5441 254.547L18.8886 256.404L18.4219 258.848L27.2622 260.536ZM1101.01 261.966L1109.85 260.291L1109.39 257.85L1107.74 255.993L1101.01 261.966ZM566.886 1305.76C250.404 1198.62 18 858.874 18 455H0C0 865.33 236.196 1212.82 561.114 1322.8L566.886 1305.76ZM18 455C18 388.785 24.2515 324.276 36.1024 262.224L18.4219 258.848C6.35856 322.012 0 387.651 0 455H18ZM563.5 0C352.256 0 160.843 97.1659 20.5441 254.547L33.9803 266.525C171.318 112.465 358.034 18 563.5 18V0ZM1107.74 255.993C967.327 97.7612 775.391 0 563.5 0V18C769.594 18 956.823 113.043 1094.28 267.94L1107.74 255.993ZM1128 455C1128 388.164 1121.74 323.011 1109.85 260.291L1092.17 263.642C1103.84 325.258 1110 389.289 1110 455H1128ZM566.886 1322.8C891.804 1212.82 1128 865.33 1128 455H1110C1110 858.874 877.596 1198.62 561.114 1305.76L566.886 1322.8Z" fill="url(#paint1_linear_176_1672)" fill-opacity="0.75" mask="url(#path-1-outside-1_176_1672)"/>
<mask id="path-3-outside-2_176_1672" maskUnits="userSpaceOnUse" x="313" y="301" width="502" height="503" fill="black">
<rect fill="white" x="313" y="301" width="502" height="503"/>
<path fill-rule="evenodd" clip-rule="evenodd" d="M559 303C454.063 305.059 364.975 371.773 329.928 464.951H559V303ZM314 552.951C314 525.714 318.356 499.495 326.408 474.951H559V652.951H510.072L461.071 603.95L454 611.021L499.713 656.734L453.999 702.448L461.07 709.52L507.638 662.951H559V802.902C423.237 800.239 314 689.352 314 552.951ZM569 662.951V802.902C665.477 801.009 748.557 744.465 788.562 662.951H569ZM793.198 652.951C806.578 622.328 814 588.506 814 552.951C814 416.55 704.763 305.663 569 303V464.951H622.496L671.496 415.951L678.567 423.022L632.855 468.734L678.569 514.448L671.497 521.519L624.93 474.951H569V652.951H793.198Z"/>
</mask>
<path fill-rule="evenodd" clip-rule="evenodd" d="M559 303C454.063 305.059 364.975 371.773 329.928 464.951H559V303ZM314 552.951C314 525.714 318.356 499.495 326.408 474.951H559V652.951H510.072L461.071 603.95L454 611.021L499.713 656.734L453.999 702.448L461.07 709.52L507.638 662.951H559V802.902C423.237 800.239 314 689.352 314 552.951ZM569 662.951V802.902C665.477 801.009 748.557 744.465 788.562 662.951H569ZM793.198 652.951C806.578 622.328 814 588.506 814 552.951C814 416.55 704.763 305.663 569 303V464.951H622.496L671.496 415.951L678.567 423.022L632.855 468.734L678.569 514.448L671.497 521.519L624.93 474.951H569V652.951H793.198Z" fill="#040510"/>
<path d="M329.928 464.951L328.992 464.599L328.483 465.951H329.928V464.951ZM559 303H560V301.98L558.98 302L559 303ZM559 464.951V465.951H560V464.951H559ZM326.408 474.951V473.951H325.684L325.458 474.639L326.408 474.951ZM559 474.951H560V473.951H559V474.951ZM559 652.951V653.951H560V652.951H559ZM510.072 652.951L509.365 653.658L509.658 653.951H510.072V652.951ZM461.071 603.95L461.778 603.243L461.071 602.536L460.364 603.243L461.071 603.95ZM454 611.021L453.293 610.314L452.586 611.021L453.293 611.728L454 611.021ZM499.713 656.734L500.42 657.441L501.127 656.734L500.42 656.027L499.713 656.734ZM453.999 702.448L453.292 701.741L452.584 702.448L453.292 703.156L453.999 702.448ZM461.07 709.52L460.363 710.227L461.07 710.934L461.777 710.227L461.07 709.52ZM507.638 662.951V661.951H507.224L506.931 662.244L507.638 662.951ZM559 662.951H560V661.951H559V662.951ZM559 802.902L558.98 803.902L560 803.922V802.902H559ZM569 802.902H568V803.922L569.02 803.902L569 802.902ZM569 662.951V661.951H568V662.951H569ZM788.562 662.951L789.46 663.392L790.167 661.951H788.562V662.951ZM793.198 652.951V653.951H793.852L794.114 653.351L793.198 652.951ZM569 303L569.02 302L568 301.98V303H569ZM569 464.951H568V465.951H569V464.951ZM622.496 464.951V465.951H622.91L623.203 465.658L622.496 464.951ZM671.496 415.951L672.203 415.244L671.496 414.537L670.789 415.244L671.496 415.951ZM678.567 423.022L679.274 423.729L679.981 423.022L679.274 422.315L678.567 423.022ZM632.855 468.734L632.148 468.027L631.441 468.734L632.148 469.441L632.855 468.734ZM678.569 514.448L679.276 515.155L679.983 514.448L679.276 513.741L678.569 514.448ZM671.497 521.519L670.79 522.226L671.497 522.933L672.205 522.226L671.497 521.519ZM624.93 474.951L625.637 474.244L625.344 473.951H624.93V474.951ZM569 474.951V473.951H568V474.951H569ZM569 652.951H568V653.951H569V652.951ZM330.864 465.303C365.771 372.497 454.505 306.05 559.02 304L558.98 302C453.622 304.067 364.178 371.05 328.992 464.599L330.864 465.303ZM559 463.951H329.928V465.951H559V463.951ZM558 303V464.951H560V303H558ZM325.458 474.639C317.373 499.282 313 525.607 313 552.951H315C315 525.821 319.338 499.707 327.358 475.263L325.458 474.639ZM559 473.951H326.408V475.951H559V473.951ZM560 652.951V474.951H558V652.951H560ZM510.072 653.951H559V651.951H510.072V653.951ZM460.364 604.657L509.365 653.658L510.779 652.244L461.778 603.243L460.364 604.657ZM454.707 611.728L461.778 604.657L460.364 603.243L453.293 610.314L454.707 611.728ZM500.42 656.027L454.707 610.314L453.293 611.728L499.006 657.441L500.42 656.027ZM454.706 703.156L500.42 657.441L499.006 656.027L453.292 701.741L454.706 703.156ZM461.777 708.812L454.706 701.741L453.292 703.156L460.363 710.227L461.777 708.812ZM506.931 662.244L460.363 708.812L461.777 710.227L508.345 663.658L506.931 662.244ZM559 661.951H507.638V663.951H559V661.951ZM560 802.902V662.951H558V802.902H560ZM313 552.951C313 689.897 422.674 801.228 558.98 803.902L559.02 801.902C423.8 799.25 315 688.806 315 552.951H313ZM570 802.902V662.951H568V802.902H570ZM787.664 662.51C747.819 743.701 665.069 800.017 568.98 801.902L569.02 803.902C665.884 802.002 749.296 745.23 789.46 663.392L787.664 662.51ZM569 663.951H788.562V661.951H569V663.951ZM813 552.951C813 588.366 805.607 622.051 792.281 652.551L794.114 653.351C807.548 622.604 815 588.647 815 552.951H813ZM568.98 304C704.2 306.652 813 417.096 813 552.951H815C815 416.005 705.326 304.674 569.02 302L568.98 304ZM570 464.951V303H568V464.951H570ZM622.496 463.951H569V465.951H622.496V463.951ZM670.789 415.244L621.789 464.244L623.203 465.658L672.203 416.658L670.789 415.244ZM679.274 422.315L672.203 415.244L670.789 416.658L677.86 423.729L679.274 422.315ZM633.562 469.441L679.274 423.729L677.86 422.315L632.148 468.027L633.562 469.441ZM679.276 513.741L633.562 468.027L632.148 469.441L677.861 515.155L679.276 513.741ZM672.205 522.226L679.276 515.155L677.861 513.741L670.79 520.812L672.205 522.226ZM624.223 475.658L670.79 522.226L672.205 520.812L625.637 474.244L624.223 475.658ZM569 475.951H624.93V473.951H569V475.951ZM570 652.951V474.951H568V652.951H570ZM793.198 651.951H569V653.951H793.198V651.951Z" fill="#A37E2C" mask="url(#path-3-outside-2_176_1672)"/>
<path d="M385.85 935.275V958.176H384.043C383.457 953.781 382.399 950.282 380.869 947.678C379.372 945.074 377.223 943.007 374.424 941.477C371.624 939.947 368.727 939.182 365.732 939.182C362.347 939.182 359.548 940.223 357.334 942.307C355.12 944.357 354.014 946.701 354.014 949.338C354.014 951.356 354.714 953.195 356.113 954.855C358.132 957.297 362.933 960.552 370.518 964.621C376.702 967.941 380.918 970.497 383.164 972.287C385.443 974.045 387.184 976.128 388.389 978.537C389.626 980.946 390.244 983.469 390.244 986.105C390.244 991.118 388.291 995.448 384.385 999.094C380.511 1002.71 375.514 1004.51 369.395 1004.51C367.474 1004.51 365.667 1004.37 363.975 1004.07C362.965 1003.91 360.866 1003.33 357.676 1002.32C354.518 1001.27 352.516 1000.75 351.67 1000.75C350.856 1000.75 350.205 1001 349.717 1001.49C349.261 1001.97 348.919 1002.98 348.691 1004.51H346.885V981.809H348.691C349.538 986.561 350.677 990.126 352.109 992.502C353.542 994.846 355.723 996.799 358.652 998.361C361.615 999.924 364.854 1000.71 368.369 1000.71C372.438 1000.71 375.645 999.631 377.988 997.482C380.365 995.334 381.553 992.795 381.553 989.865C381.553 988.238 381.097 986.594 380.186 984.934C379.307 983.273 377.923 981.727 376.035 980.295C374.766 979.318 371.299 977.251 365.635 974.094C359.971 970.904 355.934 968.365 353.525 966.477C351.149 964.589 349.342 962.505 348.105 960.227C346.868 957.948 346.25 955.441 346.25 952.707C346.25 947.954 348.073 943.869 351.719 940.451C355.365 937.001 360.003 935.275 365.635 935.275C369.15 935.275 372.878 936.138 376.816 937.863C378.639 938.677 379.925 939.084 380.674 939.084C381.52 939.084 382.204 938.84 382.725 938.352C383.278 937.831 383.717 936.805 384.043 935.275H385.85ZM410.166 933.566C411.533 933.566 412.689 934.055 413.633 935.031C414.609 935.975 415.098 937.131 415.098 938.498C415.098 939.865 414.609 941.037 413.633 942.014C412.689 942.99 411.533 943.479 410.166 943.479C408.799 943.479 407.627 942.99 406.65 942.014C405.674 941.037 405.186 939.865 405.186 938.498C405.186 937.131 405.658 935.975 406.602 935.031C407.578 934.055 408.766 933.566 410.166 933.566ZM414.219 956.955V992.893C414.219 995.692 414.414 997.564 414.805 998.508C415.228 999.419 415.83 1000.1 416.611 1000.56C417.425 1001.01 418.89 1001.24 421.006 1001.24V1003H399.277V1001.24C401.458 1001.24 402.923 1001.03 403.672 1000.61C404.421 1000.18 405.007 999.484 405.43 998.508C405.885 997.531 406.113 995.66 406.113 992.893V975.656C406.113 970.806 405.967 967.665 405.674 966.232C405.446 965.191 405.088 964.475 404.6 964.084C404.111 963.661 403.444 963.449 402.598 963.449C401.686 963.449 400.579 963.693 399.277 964.182L398.594 962.424L412.07 956.955H414.219ZM439.658 966.428C444.899 960.113 449.896 956.955 454.648 956.955C457.09 956.955 459.189 957.574 460.947 958.811C462.705 960.015 464.105 962.017 465.146 964.816C465.863 966.77 466.221 969.764 466.221 973.801V992.893C466.221 995.725 466.449 997.645 466.904 998.654C467.262 999.468 467.832 1000.1 468.613 1000.56C469.427 1001.01 470.908 1001.24 473.057 1001.24V1003H450.938V1001.24H451.865C453.949 1001.24 455.397 1000.93 456.211 1000.31C457.057 999.663 457.643 998.719 457.969 997.482C458.099 996.994 458.164 995.464 458.164 992.893V974.582C458.164 970.513 457.627 967.567 456.553 965.744C455.511 963.889 453.737 962.961 451.23 962.961C447.357 962.961 443.499 965.077 439.658 969.309V992.893C439.658 995.92 439.837 997.792 440.195 998.508C440.651 999.452 441.27 1000.15 442.051 1000.61C442.865 1001.03 444.492 1001.24 446.934 1001.24V1003H424.814V1001.24H425.791C428.07 1001.24 429.6 1000.67 430.381 999.533C431.195 998.361 431.602 996.148 431.602 992.893V976.291C431.602 970.92 431.471 967.648 431.211 966.477C430.983 965.305 430.609 964.507 430.088 964.084C429.6 963.661 428.932 963.449 428.086 963.449C427.174 963.449 426.084 963.693 424.814 964.182L424.082 962.424L437.559 956.955H439.658V966.428ZM514.609 986.008C513.405 991.9 511.045 996.441 507.529 999.631C504.014 1002.79 500.124 1004.37 495.859 1004.37C490.781 1004.37 486.354 1002.24 482.578 997.971C478.802 993.706 476.914 987.945 476.914 980.686C476.914 973.654 478.997 967.941 483.164 963.547C487.363 959.152 492.393 956.955 498.252 956.955C502.646 956.955 506.26 958.127 509.092 960.471C511.924 962.782 513.34 965.191 513.34 967.697C513.34 968.934 512.933 969.943 512.119 970.725C511.338 971.473 510.231 971.848 508.799 971.848C506.878 971.848 505.43 971.229 504.453 969.992C503.9 969.309 503.525 968.007 503.33 966.086C503.167 964.165 502.516 962.701 501.377 961.691C500.238 960.715 498.659 960.227 496.641 960.227C493.385 960.227 490.765 961.431 488.779 963.84C486.143 967.03 484.824 971.245 484.824 976.486C484.824 981.825 486.126 986.545 488.73 990.646C491.367 994.715 494.915 996.75 499.375 996.75C502.565 996.75 505.43 995.66 507.969 993.479C509.759 991.981 511.501 989.263 513.193 985.324L514.609 986.008ZM528.574 975.119C528.542 981.76 530.153 986.968 533.408 990.744C536.663 994.52 540.488 996.408 544.883 996.408C547.812 996.408 550.352 995.611 552.5 994.016C554.681 992.388 556.504 989.621 557.969 985.715L559.482 986.691C558.799 991.151 556.813 995.22 553.525 998.898C550.238 1002.54 546.12 1004.37 541.172 1004.37C535.801 1004.37 531.195 1002.28 527.354 998.117C523.545 993.918 521.641 988.286 521.641 981.223C521.641 973.573 523.594 967.616 527.5 963.352C531.439 959.055 536.37 956.906 542.295 956.906C547.308 956.906 551.426 958.566 554.648 961.887C557.871 965.174 559.482 969.585 559.482 975.119H528.574ZM528.574 972.287H549.277C549.115 969.423 548.773 967.404 548.252 966.232C547.438 964.41 546.217 962.977 544.59 961.936C542.995 960.894 541.318 960.373 539.561 960.373C536.859 960.373 534.434 961.431 532.285 963.547C530.169 965.63 528.932 968.544 528.574 972.287ZM599.082 943.283L615.195 935.422H616.807V991.33C616.807 995.041 616.953 997.352 617.246 998.264C617.572 999.175 618.223 999.875 619.199 1000.36C620.176 1000.85 622.161 1001.13 625.156 1001.19V1003H600.254V1001.19C603.379 1001.13 605.397 1000.87 606.309 1000.41C607.22 999.924 607.855 999.289 608.213 998.508C608.571 997.694 608.75 995.301 608.75 991.33V955.588C608.75 950.77 608.587 947.678 608.262 946.311C608.034 945.269 607.611 944.504 606.992 944.016C606.406 943.527 605.69 943.283 604.844 943.283C603.639 943.283 601.963 943.788 599.814 944.797L599.082 943.283ZM642.637 1004.37V1002.56C646.868 1002.5 650.807 1001.52 654.453 999.631C658.099 997.71 661.615 994.374 665 989.621C668.418 984.868 670.794 979.644 672.129 973.947C667.018 977.235 662.396 978.879 658.262 978.879C653.607 978.879 649.619 977.089 646.299 973.508C642.979 969.895 641.318 965.109 641.318 959.152C641.318 953.358 642.979 948.199 646.299 943.674C650.303 938.173 655.527 935.422 661.973 935.422C667.409 935.422 672.064 937.668 675.938 942.16C680.69 947.727 683.066 954.595 683.066 962.766C683.066 970.122 681.26 976.991 677.646 983.371C674.033 989.719 669.004 994.992 662.559 999.191C657.318 1002.64 651.605 1004.37 645.42 1004.37H642.637ZM672.91 970.334C673.496 966.102 673.789 962.717 673.789 960.178C673.789 957.02 673.252 953.618 672.178 949.973C671.104 946.294 669.574 943.479 667.588 941.525C665.635 939.572 663.405 938.596 660.898 938.596C658.001 938.596 655.462 939.898 653.281 942.502C651.1 945.106 650.01 948.98 650.01 954.123C650.01 960.992 651.458 966.363 654.355 970.236C656.471 973.036 659.076 974.436 662.168 974.436C663.665 974.436 665.439 974.077 667.49 973.361C669.541 972.645 671.348 971.636 672.91 970.334ZM706.553 969.65C701.312 965.354 697.926 961.903 696.396 959.299C694.899 956.695 694.15 953.993 694.15 951.193C694.15 946.896 695.811 943.202 699.131 940.109C702.451 936.984 706.862 935.422 712.363 935.422C717.702 935.422 721.999 936.87 725.254 939.768C728.509 942.665 730.137 945.969 730.137 949.68C730.137 952.154 729.258 954.676 727.5 957.248C725.742 959.82 722.08 962.847 716.514 966.33C722.243 970.757 726.035 974.24 727.891 976.779C730.365 980.1 731.602 983.599 731.602 987.277C731.602 991.932 729.827 995.92 726.279 999.24C722.731 1002.53 718.076 1004.17 712.314 1004.17C706.032 1004.17 701.133 1002.2 697.617 998.264C694.818 995.106 693.418 991.656 693.418 987.912C693.418 984.982 694.395 982.085 696.348 979.221C698.333 976.324 701.735 973.133 706.553 969.65ZM714.219 964.426C718.125 960.91 720.599 958.143 721.641 956.125C722.682 954.074 723.203 951.763 723.203 949.191C723.203 945.773 722.243 943.104 720.322 941.184C718.402 939.23 715.781 938.254 712.461 938.254C709.141 938.254 706.439 939.214 704.355 941.135C702.272 943.055 701.23 945.301 701.23 947.873C701.23 949.566 701.654 951.258 702.5 952.951C703.379 954.644 704.616 956.255 706.211 957.785L714.219 964.426ZM708.848 971.506C706.146 973.785 704.144 976.275 702.842 978.977C701.54 981.646 700.889 984.543 700.889 987.668C700.889 991.867 702.028 995.236 704.307 997.775C706.618 1000.28 709.548 1001.54 713.096 1001.54C716.611 1001.54 719.427 1000.54 721.543 998.557C723.659 996.571 724.717 994.162 724.717 991.33C724.717 988.986 724.098 986.887 722.861 985.031C720.55 981.581 715.879 977.072 708.848 971.506ZM783.896 978.586V985.52H775.01V1003H766.953V985.52H738.926V979.27L769.639 935.422H775.01V978.586H783.896ZM766.953 978.586V945.725L743.711 978.586H766.953Z" fill="#040510"/>
<path d="M1699.57 486.515L1708.97 601.456H1699.57C1690.08 572.81 1677.82 551.236 1662.78 536.734C1641.12 515.787 1613.28 505.313 1579.26 505.313C1532.89 505.313 1497.62 523.665 1473.45 560.367C1453.22 591.34 1443.1 628.222 1443.1 671.012C1443.1 705.745 1449.82 737.434 1463.25 766.08C1476.67 794.726 1494.22 815.763 1515.88 829.19C1537.72 842.439 1560.1 849.063 1583.02 849.063C1596.45 849.063 1609.43 847.363 1621.96 843.961C1634.49 840.559 1646.58 835.546 1658.22 828.922V723.648C1658.22 705.387 1656.78 693.481 1653.92 687.931C1651.23 682.201 1646.94 677.905 1641.03 675.04C1635.3 671.996 1625.09 670.475 1610.41 670.475V660.27H1751.4V670.475H1744.69C1730.73 670.475 1721.15 675.13 1715.96 684.439C1712.37 691.064 1710.58 704.133 1710.58 723.648V835.099C1689.99 846.199 1669.67 854.345 1649.62 859.537C1629.57 864.729 1607.28 867.325 1582.75 867.325C1512.39 867.325 1458.95 844.767 1422.42 799.649C1395.03 765.812 1381.34 726.782 1381.34 682.56C1381.34 650.512 1389.03 619.807 1404.43 590.445C1422.69 555.533 1447.76 528.678 1479.63 509.879C1506.3 494.303 1537.81 486.515 1574.16 486.515C1587.41 486.515 1599.4 487.589 1610.14 489.737C1621.07 491.886 1636.46 496.63 1656.34 503.971C1666.36 507.73 1673.08 509.61 1676.48 509.61C1679.88 509.61 1682.74 508.089 1685.07 505.045C1687.58 501.822 1689.1 495.646 1689.64 486.515H1699.57ZM1874.4 514.713V658.658H1954.43C1975.2 658.658 1989.08 655.525 1996.06 649.259C2005.37 641.023 2010.56 626.521 2011.63 605.753H2021.57V732.511H2011.63C2009.13 714.786 2006.62 703.417 2004.11 698.404C2000.89 692.138 1995.61 687.215 1988.27 683.634C1980.93 680.053 1969.65 678.263 1954.43 678.263H1874.4V798.307C1874.4 814.42 1875.12 824.267 1876.55 827.848C1877.98 831.249 1880.49 834.024 1884.07 836.173C1887.65 838.142 1894.45 839.127 1904.48 839.127H1966.25C1986.84 839.127 2001.79 837.695 2011.1 834.83C2020.41 831.965 2029.36 826.326 2037.95 817.911C2049.05 806.811 2060.42 790.071 2072.06 767.691H2082.8L2051.38 859H1770.74V849.063H1783.63C1792.22 849.063 1800.37 847.005 1808.07 842.887C1813.8 840.022 1817.65 835.725 1819.62 829.996C1821.77 824.267 1822.84 812.54 1822.84 794.815V558.219C1822.84 535.123 1820.51 520.89 1815.86 515.519C1809.41 508.357 1798.67 504.776 1783.63 504.776H1770.74V494.84H2051.38L2055.41 574.601H2044.93C2041.17 555.444 2036.97 542.285 2032.31 535.123C2027.84 527.962 2021.12 522.501 2012.17 518.741C2005.01 516.056 1992.39 514.713 1974.3 514.713H1874.4ZM2296.84 486.515C2344.1 486.515 2385.01 504.508 2419.57 540.494C2454.3 576.301 2471.67 621.061 2471.67 674.771C2471.67 730.094 2454.21 776.017 2419.3 812.54C2384.39 849.063 2342.14 867.325 2292.54 867.325C2242.41 867.325 2200.25 849.511 2166.05 813.883C2132.04 778.255 2115.03 732.153 2115.03 675.577C2115.03 617.748 2134.72 570.572 2174.11 534.049C2208.31 502.359 2249.22 486.515 2296.84 486.515ZM2291.74 506.119C2259.15 506.119 2233.01 518.204 2213.32 542.374C2188.79 572.452 2176.53 616.495 2176.53 674.503C2176.53 733.943 2189.24 779.687 2214.66 811.734C2234.18 836.083 2259.96 848.258 2292 848.258C2326.2 848.258 2354.4 834.92 2376.6 808.243C2398.98 781.567 2410.17 739.493 2410.17 682.022C2410.17 619.718 2397.9 573.258 2373.38 542.643C2353.68 518.294 2326.47 506.119 2291.74 506.119ZM2864.83 859H2767.62L2644.35 688.736C2635.22 689.094 2627.79 689.273 2622.06 689.273C2619.73 689.273 2617.22 689.273 2614.54 689.273C2611.85 689.094 2609.08 688.915 2606.21 688.736V794.547C2606.21 817.464 2608.72 831.697 2613.73 837.247C2620.54 845.125 2630.74 849.063 2644.35 849.063H2658.58V859H2502.55V849.063H2516.25C2531.65 849.063 2542.66 844.05 2549.28 834.024C2553.04 828.474 2554.92 815.315 2554.92 794.547V559.293C2554.92 536.376 2552.41 522.143 2547.4 516.593C2540.42 508.715 2530.03 504.776 2516.25 504.776H2502.55V494.84H2635.22C2673.89 494.84 2702.36 497.704 2720.62 503.434C2739.06 508.984 2754.64 519.368 2767.35 534.586C2780.24 549.625 2786.68 567.618 2786.68 588.565C2786.68 610.945 2779.34 630.37 2764.66 646.842C2750.16 663.313 2727.6 674.951 2696.99 681.754L2772.18 786.222C2789.37 810.213 2804.14 826.147 2816.49 834.024C2828.85 841.902 2844.96 846.915 2864.83 849.063V859ZM2606.21 671.817C2609.62 671.817 2612.57 671.907 2615.08 672.086C2617.58 672.086 2619.64 672.086 2621.25 672.086C2655.99 672.086 2682.13 664.566 2699.67 649.527C2717.4 634.488 2726.26 615.331 2726.26 592.057C2726.26 569.319 2719.1 550.878 2704.77 536.734C2690.63 522.411 2671.83 515.25 2648.38 515.25C2637.99 515.25 2623.94 516.951 2606.21 520.353V671.817ZM3197.57 486.515L3206.97 601.456H3197.57C3188.08 572.81 3175.82 551.236 3160.78 536.734C3139.12 515.787 3111.28 505.313 3077.26 505.313C3030.89 505.313 2995.62 523.665 2971.45 560.367C2951.22 591.34 2941.1 628.222 2941.1 671.012C2941.1 705.745 2947.82 737.434 2961.24 766.08C2974.67 794.726 2992.22 815.763 3013.88 829.19C3035.72 842.439 3058.1 849.063 3081.02 849.063C3094.45 849.063 3107.43 847.363 3119.96 843.961C3132.49 840.559 3144.58 835.546 3156.21 828.922V723.648C3156.21 705.387 3154.78 693.481 3151.92 687.931C3149.23 682.201 3144.93 677.905 3139.03 675.04C3133.3 671.996 3123.09 670.475 3108.41 670.475V660.27H3249.4V670.475H3242.69C3228.72 670.475 3219.15 675.13 3213.95 684.439C3210.37 691.064 3208.58 704.133 3208.58 723.648V835.099C3187.99 846.199 3167.67 854.345 3147.62 859.537C3127.57 864.729 3105.28 867.325 3080.75 867.325C3010.39 867.325 2956.95 844.767 2920.42 799.649C2893.03 765.812 2879.33 726.782 2879.33 682.56C2879.33 650.512 2887.03 619.807 2902.43 590.445C2920.69 555.533 2945.76 528.678 2977.62 509.879C3004.3 494.303 3035.81 486.515 3072.16 486.515C3085.4 486.515 3097.4 487.589 3108.14 489.737C3119.06 491.886 3134.46 496.63 3154.33 503.971C3164.36 507.73 3171.07 509.61 3174.48 509.61C3177.88 509.61 3180.74 508.089 3183.07 505.045C3185.58 501.822 3187.1 495.646 3187.63 486.515H3197.57ZM3372.4 514.713V658.658H3452.43C3473.2 658.658 3487.07 655.525 3494.06 649.259C3503.37 641.023 3508.56 626.521 3509.63 605.753H3519.57V732.511H3509.63C3507.13 714.786 3504.62 703.417 3502.11 698.404C3498.89 692.138 3493.61 687.215 3486.27 683.634C3478.93 680.053 3467.65 678.263 3452.43 678.263H3372.4V798.307C3372.4 814.42 3373.12 824.267 3374.55 827.848C3375.98 831.249 3378.49 834.024 3382.07 836.173C3385.65 838.142 3392.45 839.127 3402.48 839.127H3464.25C3484.84 839.127 3499.78 837.695 3509.09 834.83C3518.4 831.965 3527.36 826.326 3535.95 817.911C3547.05 806.811 3558.42 790.071 3570.06 767.691H3580.8L3549.38 859H3268.74V849.063H3281.63C3290.22 849.063 3298.37 847.005 3306.07 842.887C3311.8 840.022 3315.65 835.725 3317.62 829.996C3319.76 824.267 3320.84 812.54 3320.84 794.815V558.219C3320.84 535.123 3318.51 520.89 3313.86 515.519C3307.41 508.357 3296.67 504.776 3281.63 504.776H3268.74V494.84H3549.38L3553.41 574.601H3542.93C3539.17 555.444 3534.97 542.285 3530.31 535.123C3525.83 527.962 3519.12 522.501 3510.17 518.741C3503.01 516.056 3490.39 514.713 3472.3 514.713H3372.4ZM4235.8 494.84V504.776C4226.31 504.776 4218.62 506.477 4212.71 509.879C4206.8 513.281 4201.16 519.636 4195.79 528.946C4192.21 535.213 4186.57 550.162 4178.87 573.795L4077.36 867.325H4066.61L3983.63 634.488L3901.18 867.325H3891.52L3783.29 564.933C3775.23 542.374 3770.13 529.036 3767.98 524.918C3764.4 518.115 3759.48 513.102 3753.21 509.879C3747.12 506.477 3738.8 504.776 3728.24 504.776V494.84H3863.05V504.776H3856.6C3847.12 504.776 3839.86 506.925 3834.85 511.222C3829.84 515.519 3827.33 520.711 3827.33 526.798C3827.33 533.064 3831.27 547.477 3839.15 570.035L3910.85 774.405L3971.28 600.65L3960.54 570.035L3951.94 545.597C3948.18 536.645 3943.97 528.767 3939.32 521.964C3936.99 518.562 3934.13 515.698 3930.73 513.37C3926.25 510.147 3921.77 507.82 3917.3 506.388C3913.9 505.313 3908.53 504.776 3901.18 504.776V494.84H4042.98V504.776H4033.31C4023.29 504.776 4015.95 506.925 4011.29 511.222C4006.64 515.519 4004.31 521.337 4004.31 528.678C4004.31 537.809 4008.34 553.743 4016.39 576.48L4086.22 774.405L4155.51 573.795C4163.38 551.594 4167.32 536.197 4167.32 527.604C4167.32 523.486 4165.98 519.636 4163.29 516.056C4160.79 512.475 4157.56 509.968 4153.63 508.536C4146.82 506.03 4137.96 504.776 4127.04 504.776V494.84H4235.8ZM4441.52 486.515C4488.78 486.515 4529.69 504.508 4564.25 540.494C4598.98 576.301 4616.35 621.061 4616.35 674.771C4616.35 730.094 4598.89 776.017 4563.98 812.54C4529.07 849.063 4486.81 867.325 4437.22 867.325C4387.09 867.325 4344.93 849.511 4310.73 813.883C4276.71 778.255 4259.71 732.153 4259.71 675.577C4259.71 617.748 4279.4 570.572 4318.79 534.049C4352.98 502.359 4393.89 486.515 4441.52 486.515ZM4436.41 506.119C4403.83 506.119 4377.69 518.204 4358 542.374C4333.47 572.452 4321.2 616.495 4321.2 674.503C4321.2 733.943 4333.92 779.687 4359.34 811.734C4378.85 836.083 4404.64 848.258 4436.68 848.258C4470.88 848.258 4499.08 834.92 4521.28 808.243C4543.66 781.567 4554.85 739.493 4554.85 682.022C4554.85 619.718 4542.58 573.258 4518.05 542.643C4498.36 518.294 4471.15 506.119 4436.41 506.119ZM4838.98 486.515C4886.24 486.515 4927.15 504.508 4961.71 540.494C4996.44 576.301 5013.81 621.061 5013.81 674.771C5013.81 730.094 4996.35 776.017 4961.44 812.54C4926.53 849.063 4884.27 867.325 4834.68 867.325C4784.55 867.325 4742.39 849.511 4708.19 813.883C4674.17 778.255 4657.17 732.153 4657.17 675.577C4657.17 617.748 4676.86 570.572 4716.25 534.049C4750.44 502.359 4791.35 486.515 4838.98 486.515ZM4833.88 506.119C4801.29 506.119 4775.15 518.204 4755.46 542.374C4730.93 572.452 4718.67 616.495 4718.67 674.503C4718.67 733.943 4731.38 779.687 4756.8 811.734C4776.31 836.083 4802.1 848.258 4834.14 848.258C4868.34 848.258 4896.54 834.92 4918.74 808.243C4941.12 781.567 4952.31 739.493 4952.31 682.022C4952.31 619.718 4940.04 573.258 4915.52 542.643C4895.82 518.294 4868.61 506.119 4833.88 506.119ZM5044.69 859V849.063H5058.39C5073.78 849.063 5084.71 844.14 5091.15 834.293C5095.09 828.385 5097.06 815.136 5097.06 794.547V559.293C5097.06 536.555 5094.55 522.322 5089.54 516.593C5082.56 508.715 5072.17 504.776 5058.39 504.776H5044.69V494.84H5192.93C5247.36 494.84 5288.72 501.017 5317 513.37C5345.47 525.724 5368.3 546.313 5385.49 575.138C5402.85 603.963 5411.54 637.263 5411.54 675.04C5411.54 725.707 5396.14 768.049 5365.34 802.066C5330.79 840.022 5278.15 859 5207.43 859H5044.69ZM5148.62 832.682C5171.36 837.695 5190.43 840.201 5205.82 840.201C5247.36 840.201 5281.82 825.61 5309.22 796.427C5336.61 767.244 5350.31 727.677 5350.31 677.726C5350.31 627.416 5336.61 587.76 5309.22 558.756C5281.82 529.752 5246.64 515.25 5203.67 515.25C5187.56 515.25 5169.21 517.846 5148.62 523.038V832.682Z" fill="white"/>
<defs>
<linearGradient id="paint0_linear_176_1672" x1="1697" y1="662" x2="-501.5" y2="662" gradientUnits="userSpaceOnUse">
<stop offset="0.21" stop-color="#072819"/>
<stop offset="0.365" stop-color="#135B3A"/>
<stop offset="0.515" stop-color="#2BA86E"/>
<stop offset="0.68" stop-color="#135B3A"/>
<stop offset="0.785" stop-color="#072819"/>
</linearGradient>
<linearGradient id="paint1_linear_176_1672" x1="564" y1="9" x2="564" y2="1314.28" gradientUnits="userSpaceOnUse">
<stop/>
<stop offset="1" stop-color="#666666"/>
</linearGradient>
</defs>
</svg>
